Coordinates
version=1
nRows=47
nColumns=10
inDegrees=yes

Units are S.I. units (second, meters, Newtons, ...)
Angles are in degrees.

endheader
time	pelvis_tilt	pelvis_tx	pelvis_ty	hip_flexion_r	knee_angle_r	ankle_angle_r	hip_flexion_l	knee_angle_l	ankle_angle_l
      1.25000000	     -4.83965781	      0.58273280	      1.00197884	    -12.00551525	     -6.81870255	     13.63242910	     30.13584255	     -4.67529284	     -2.40222600
      1.26700000	     -4.79560397	      0.58475500	      1.00086683	    -12.37611529	     -8.73799780	     13.89184438	     30.38946043	     -6.97694915	     -3.27302785
      1.28300000	     -4.91453982	      0.58574839	      0.99999286	    -12.07955719	    -11.50687693	     14.08991857	     30.71225751	     -9.12419627	     -4.63400008
      1.30000000	     -4.91182527	      0.58811436	      0.99995800	    -12.02704107	    -14.06770672	     13.61943620	     30.84099319	    -11.42651918	     -5.63333715
      1.31700000	     -4.82801059	      0.59087214	      1.00068534	    -11.48437857	    -17.68821813	     12.83265557	     30.76173575	    -13.64144713	     -6.23909895
      1.33300000	     -4.70150122	      0.59376069	      1.00198998	    -10.48053120	    -22.11186211	     11.46851513	     30.49748821	    -15.73220913	     -6.36201394
      1.35000000	     -4.45473043	      0.59676554	      1.00405259	     -9.07713690	    -27.23504428	      9.19731199	     29.87183485	    -17.51179572	     -6.09262668
      1.36700000	     -4.31626464	      0.59945044	      1.00621972	     -6.98694449	    -32.98287766	      5.87865940	     29.12758237	    -18.90796670	     -5.49556296
      1.38300000	     -4.28850841	      0.60147227	      1.00833628	     -4.29548142	    -39.00608011	      1.63836849	     28.32896212	    -19.98327977	     -4.59547778
      1.40000000	     -4.27578353	      0.60271243	      1.01056897	     -1.31324933	    -44.81142972	     -3.02767179	     27.41786678	    -20.77360611	     -3.50872362
      1.41700000	     -4.27861818	      0.60358232	      1.01332907	      1.71130317	    -49.97921544	     -7.17529468	     26.22502230	    -20.96032604	     -2.45738589
      1.43300000	     -4.39216301	      0.60287875	      1.01574963	      5.00236161	    -54.84730381	     -9.64257613	     25.17064966	    -21.00409043	     -1.44238737
      1.45000000	     -4.41604337	      0.60192634	      1.01855485	      8.08520304	    -59.08888857	    -10.15600409	     23.94425738	    -20.87541801	     -0.48301539
      1.46700000	     -4.41399945	      0.60201121	      1.02201534	     10.83406356	    -62.43457522	     -9.14141059	     22.37027563	    -20.23471125	      0.31645243
      1.48300000	     -4.37327014	      0.60078919	      1.02532408	     13.58471528	    -65.24111438	     -7.31273074	     20.72948614	    -19.35420899	      0.92547984
      1.50000000	     -4.48352705	      0.59940293	      1.02794944	     16.36783767	    -67.27302661	     -5.29007184	     19.33242747	    -18.61240463	      1.57952208
      1.51700000	     -4.53039327	      0.59785617	      1.03039234	     18.93010431	    -68.45533100	     -3.47900855	     17.75522171	    -17.61076741	      2.13163809
      1.53300000	     -4.54662733	      0.59651937	      1.03256048	     21.24834652	    -68.75497005	     -2.07690879	     16.04798782	    -16.42447108	      2.60407443
      1.55000000	     -4.76137192	      0.59401452	      1.03357738	     23.73979532	    -68.40210934	     -1.05836625	     14.80805367	    -15.61422121	      3.18704296
      1.56700000	     -4.76075016	      0.59264865	      1.03481355	     25.61375694	    -67.06129603	     -0.36066171	     13.12617675	    -14.50423138	      3.70888476
      1.58300000	     -4.85504517	      0.59062133	      1.03527062	     27.43771301	    -65.02157687	      0.08526124	     11.74869355	    -13.72286993	      4.35183614
      1.60000000	     -4.87094232	      0.58948366	      1.03555313	     28.82491082	    -62.15562985	      0.41300212	     10.12142888	    -12.69615315	      4.92839432
      1.61700000	     -5.07532262	      0.58659135	      1.03500808	     30.25090943	    -58.55907323	      0.54526202	      8.95449551	    -11.96903045	      5.52564004
      1.63300000	     -5.25207427	      0.58455453	      1.03376392	     31.28270841	    -54.24175374	      0.66780895	      7.77463913	    -11.39964984	      6.31150803
      1.65000000	     -5.42401829	      0.58216818	      1.03229705	     31.93209400	    -49.04151007	      0.56125948	      6.58925037	    -10.77389677	      7.03959773
      1.66700000	     -5.46599283	      0.58073740	      1.03073638	     31.96642448	    -43.01575815	      0.23637725	      5.11898332	     -9.97126750	      7.75474616
      1.68300000	     -5.61719815	      0.57897826	      1.02812762	     31.88494132	    -36.48655681	     -0.36156972	      4.00367651	     -9.66036889	      8.76963232
      1.70000000	     -5.66250647	      0.57835850	      1.02519930	     31.27794052	    -29.39475056	     -1.04024243	      2.58127409	     -9.11592146	      9.77302425
      1.71700000	     -5.46564441	      0.57776355	      1.02233200	     30.22608554	    -22.08057908	     -1.86238927	      0.94737818	     -8.68751581	     10.82277245
      1.73300000	     -5.29364344	      0.57769119	      1.01853061	     29.30106165	    -15.30873293	     -2.39269579	     -0.76764828	     -8.13780436	     11.94037387
      1.75000000	     -4.95867193	      0.57854196	      1.01457438	     28.41307816	     -9.54264389	     -2.42125539	     -2.73811888	     -7.54683129	     13.03115579
      1.76700000	     -4.62301542	      0.57964220	      1.01056999	     27.80818121	     -5.02874832	     -1.95679927	     -4.70290293	     -6.99372372	     14.01287598
      1.78300000	     -4.29652983	      0.58101665	      1.00676947	     27.38574451	     -1.68827317	     -1.13325117	     -6.78058139	     -6.19506875	     14.69196280
      1.80000000	     -4.09836666	      0.58196181	      1.00319903	     27.24749935	      0.48840343	     -0.36696267	     -8.35445446	     -6.08898401	     15.45066242
      1.81700000	     -3.94855166	      0.58272769	      1.00018436	     27.35525849	      1.26169053	      0.15442182	     -9.54431769	     -6.62988534	     16.23125405
      1.83300000	     -3.84260580	      0.58346969	      0.99769480	     27.56449341	      0.90098621	      0.11657105	    -10.52380733	     -7.47209287	     16.85524243
      1.85000000	     -3.83670809	      0.58491689	      0.99571570	     28.03337648	     -0.74046216	     -0.36291388	    -11.17732807	     -8.80760870	     17.34894928
      1.86700000	     -3.85712955	      0.58609844	      0.99420868	     28.58184735	     -3.06731324	     -1.45103961	    -11.50930606	    -10.66753769	     17.69401856
      1.88300000	     -3.89143492	      0.58873357	      0.99326950	     28.95477581	     -5.53774423	     -2.80809565	    -11.99621671	    -12.25143677	     17.47909573
      1.90000000	     -3.93678726	      0.59173305	      0.99289159	     29.24754837	     -8.04847000	     -4.15221876	    -12.18733779	    -14.35725811	     17.01347487
      1.91700000	     -3.87052172	      0.59473112	      0.99352169	     29.50406966	    -10.89787321	     -5.01587134	    -12.10768068	    -17.09342089	     16.21527139
      1.93300000	     -3.74909353	      0.59862582	      0.99483606	     29.56855143	    -13.75318093	     -5.27137693	    -11.68227179	    -20.53465994	     14.97758912
      1.95000000	     -3.61377648	      0.60208077	      0.99656786	     29.49619898	    -16.43086051	     -5.15156971	    -10.58384021	    -25.04894393	     13.28727083
      1.96700000	     -3.58612957	      0.60454333	      0.99813168	     29.29353496	    -18.61332217	     -4.81482169	     -8.55310760	    -30.75696866	     10.95312445
      1.98300000	     -3.60379307	      0.60687280	      0.99983122	     28.87440197	    -20.35509292	     -4.11151919	     -5.99372944	    -36.89037313	      7.49319646
      2.00000000	     -3.61902062	      0.60840995	      1.00156563	     28.30808970	    -21.81566624	     -3.02308416	     -3.00046556	    -43.16392526	      3.04456195
      2.01700000	     -3.82884679	      0.60873336	      1.00319504	     27.71600272	    -22.71339637	     -1.81872446	      0.49899806	    -49.18153354	     -1.87387356
